<svg viewBox="0 0 74 56" xmlns="http://www.w3.org/2000/svg" xmlns:xlink="http://www.w3.org/1999/xlink"><style>:root&gt;svg{display:none}:root&gt;svg:target{display:block}</style><svg fill="none" viewBox="0 0 26 26" id="include--burger" xmlns="http://www.w3.org/2000/svg"><path fill-rule="evenodd" clip-rule="evenodd" d="M2.167 13c0-.598.485-1.083 1.083-1.083h19.5a1.083 1.083 0 110 2.166H3.25A1.083 1.083 0 012.167 13zm0-6.5c0-.598.485-1.083 1.083-1.083h19.5a1.083 1.083 0 110 2.166H3.25A1.083 1.083 0 012.167 6.5zm0 13c0-.598.485-1.083 1.083-1.083h19.5a1.083 1.083 0 110 2.166H3.25A1.083 1.083 0 012.167 19.5z" fill="#fff"/></svg><svg fill="none" viewBox="0 0 36 30" id="include--cart-icon" xmlns="http://www.w3.org/2000/svg"><path d="M35.29 6.19c-.78 1.646-4.215 9.584-4.683 10.318a6.735 6.735 0 00-.151.256c-.457.781-.94 1.382-2.603 1.382H11.981c.331 1.012 1.026 2.258 2.466 2.258h13.737a.735.735 0 010 1.468H14.447c-2.038 0-3.528-1.594-4.083-4.042-.306-1.35-4.024-13.792-4.29-14.768-.285-.619-.951-1.065-1.596-1.065H1.094a.735.735 0 010-1.469h3.384c1.26 0 2.452.068 2.967 1.264a.513.513 0 01.032.097c.148.533 3.23 11.466 4.108 14.785H27.85c.954 0 1.047-.166 1.332-.652.057-.097.115-.198.183-.302.436-.684 3.849-8.575 4.576-10.109.302-.792.248-1.224.165-1.346-.054-.08-.23-.126-.471-.126-1.591.025-21.795 0-22.497 0a.736.736 0 010-1.473c.173 0 20.891.026 22.482 0 .969 0 1.455.414 1.696.764.44.64.432 1.57-.025 2.76zM14.055 22.6a3.442 3.442 0 013.438 3.438 3.437 3.437 0 11-3.438-3.438zm0 5.46a2.025 2.025 0 002.024-2.022 2.025 2.025 0 00-2.024-2.024 2.025 2.025 0 00-2.023 2.024 2.03 2.03 0 002.023 2.023zm13.978-5.46a3.442 3.442 0 013.438 3.438 3.437 3.437 0 11-3.438-3.438zm0 5.46a2.025 2.025 0 002.023-2.022 2.025 2.025 0 00-2.023-2.024 2.025 2.025 0 00-2.023 2.024c0 1.116.91 2.023 2.023 2.023z" fill="#CBCFD4"/></svg><svg fill="none" viewBox="0 0 18 18" id="include--cart-mobile" xmlns="http://www.w3.org/2000/svg"><g clip-path="url(#cclip0)" fill-rule="evenodd" clip-rule="evenodd" fill="#DEDEDE"><path d="M5.25 15.75a1.5 1.5 0 113 0 1.5 1.5 0 01-3 0zm8.25 0a1.5 1.5 0 113 0 1.5 1.5 0 01-3 0zM0 .75A.75.75 0 01.75 0h3a.75.75 0 01.735.603l.63 3.147H17.25a.75.75 0 01.737.89l-1.201 6.299a2.25 2.25 0 01-2.243 1.811H7.266a2.25 2.25 0 01-2.242-1.81L3.772 4.68a.75.75 0 01-.013-.064L3.135 1.5H.75A.75.75 0 010 .75zm5.416 4.5l1.08 5.396a.75.75 0 00.75.604h7.318a.75.75 0 00.75-.601l1.03-5.399H5.415z"/></g><defs><clipPath id="cclip0"><path fill="#fff" d="M0 0h18v18H0z"/></clipPath></defs></svg><svg fill="none" viewBox="0 0 19 19" id="include--compare-mobile" xmlns="http://www.w3.org/2000/svg"><path d="M17 9.558v7.678a.786.786 0 01-.783.784.786.786 0 01-.783-.784V9.558c0-.43.352-.783.783-.783.431 0 .784.352.784.783zm-.783-7.325a.787.787 0 00.784-.784V.783A.786.786 0 0016.217 0a.786.786 0 00-.783.783v.666c0 .431.352.784.783.784zM5.23 9.01c0 1.293-1.057 2.35-2.33 2.35-1.274 0-2.331-1.057-2.331-2.35 0-1.293 1.057-2.35 2.33-2.35 1.274 0 2.331 1.057 2.331 2.35zm-1.567 0a.782.782 0 00-.764-.784.782.782 0 00-.763.784c0 .43.352.783.763.783a.782.782 0 00.764-.783zm8.227 3.858c0 1.293-1.058 2.35-2.331 2.35s-2.331-1.057-2.331-2.35c0-1.292 1.058-2.35 2.33-2.35a2.34 2.34 0 012.332 2.35zm-1.567 0a.782.782 0 00-.764-.783.782.782 0 00-.764.783c0 .431.353.784.764.784a.782.782 0 00.764-.784zm8.246-7.266c0 1.292-1.058 2.35-2.331 2.35s-2.331-1.058-2.331-2.35c0-1.293 1.058-2.35 2.33-2.35 1.274 0 2.332 1.057 2.332 2.35zm-1.567 0a.782.782 0 00-.764-.784.782.782 0 00-.764.784c0 .43.352.783.764.783A.77.77 0 0017 5.602zm-7.443 10.4a.786.786 0 00-.784.784v.45c0 .431.353.784.784.784.43 0 .783-.353.783-.784v-.45a.786.786 0 00-.783-.784zm0-6.463c.43 0 .783-.353.783-.784V.783A.786.786 0 009.558 0a.786.786 0 00-.784.783v7.972c0 .431.353.784.784.784zm-6.66 2.86a.786.786 0 00-.783.783v4.054c0 .431.353.784.783.784a.787.787 0 00.784-.784v-4.054a.786.786 0 00-.784-.784zm0-6.739a.786.786 0 00.784-.783V.783A.786.786 0 002.898 0a.786.786 0 00-.783.783v4.094c0 .43.353.783.783.783z" fill="#DEDEDE"/></svg><svg fill="none" viewBox="0 0 56 56" id="include--footer-shedule-icon" xmlns="http://www.w3.org/2000/svg"><path d="M53.765 17.1c-2.953-6.883-7.97-11.89-14.91-14.85A27.522 27.522 0 0027.953.015c-3.796 0-7.404.749-10.87 2.235C10.2 5.203 5.161 10.206 2.203 17.1.722 20.554 0 24.173 0 27.969c0 3.797.722 7.446 2.204 10.9 2.958 6.895 7.998 11.928 14.88 14.88a27.24 27.24 0 0010.87 2.235 27.53 27.53 0 0010.9-2.234c6.94-2.96 11.958-7.998 14.91-14.88A27.39 27.39 0 0056 27.969c0-3.796-.748-7.403-2.235-10.869zm-4.47 23.24c-2.198 3.769-5.21 6.76-9.002 8.97-3.77 2.198-7.9 3.307-12.338 3.307-3.337 0-6.522-.643-9.553-1.96-3.032-1.316-5.65-3.046-7.839-5.235-2.19-2.19-3.932-4.833-5.235-7.87-1.3-3.025-1.929-6.245-1.929-9.583 0-4.44 1.091-8.549 3.277-12.308 2.193-3.773 5.205-6.766 8.97-8.97 3.766-2.205 7.869-3.308 12.308-3.308 4.44 0 8.57 1.11 12.339 3.307 3.792 2.211 6.797 5.205 9.001 8.971 2.205 3.766 3.307 7.868 3.307 12.308 0 4.44-1.095 8.577-3.306 12.37z" fill="#656C73"/><path d="M29.73 27.724v-15.86c0-.95-.827-1.715-1.776-1.715-.888 0-1.684.766-1.684 1.715v16.105c0 .03.061.154.061.245-.061.551.093 1.01.46 1.378l9.155 9.155c.612.612 1.745.612 2.357 0 .704-.704.658-1.726 0-2.388l-8.573-8.635z" fill="#656C73"/></svg><svg fill="none" viewBox="0 0 74 53" id="include--footer-subscribe-icon" xmlns="http://www.w3.org/2000/svg"><path d="M59.23 40.167c-.291 0-.581-.106-.808-.32L44.85 27.112a1.178 1.178 0 01-.051-1.665 1.174 1.174 0 011.667-.052l13.573 12.733a1.178 1.178 0 01-.809 2.038zm-45.308.003a1.18 1.18 0 01-.809-2.038l13.578-12.733a1.178 1.178 0 111.616 1.717L14.729 39.849a1.169 1.169 0 01-.807.321z" fill="#50A8FF"/><path d="M67.256 52.006H5.897A5.904 5.904 0 010 46.11V5.897A5.904 5.904 0 015.897 0h61.36a5.904 5.904 0 015.897 5.897V46.11a5.904 5.904 0 01-5.898 5.897zM5.897 2.36A3.543 3.543 0 002.36 5.897V46.11a3.543 3.543 0 003.538 3.538h61.36a3.543 3.543 0 003.538-3.538V5.897a3.543 3.543 0 00-3.539-3.538H5.897z" fill="#50A8FF"/><path d="M36.577 31.93c-1.569 0-3.137-.521-4.331-1.561L1.958 3.947a1.182 1.182 0 01-.116-1.666 1.187 1.187 0 011.666-.113l30.288 26.42c1.507 1.313 4.055 1.313 5.56 0L69.606 2.21a1.18 1.18 0 011.552 1.778l-30.25 26.377c-1.196 1.043-2.763 1.564-4.331 1.564z" fill="#50A8FF"/></svg><svg fill="none" viewBox="0 0 14 8" id="include--header-location-chevron" xmlns="http://www.w3.org/2000/svg"><path d="M1 1l6 6 6-6" stroke="#272323" stroke-linecap="round"/></svg><svg fill="none" viewBox="0 0 8 5" id="include--input-sort" xmlns="http://www.w3.org/2000/svg"><path d="M3.577 4.83l-3.4-3.292a.565.565 0 010-.82L.74.17a.612.612 0 01.848 0L4 2.504 6.41.17a.612.612 0 01.849 0l.565.547a.565.565 0 010 .82L4.423 4.829a.609.609 0 01-.846 0z" fill="#E5E5E5"/></svg><svg fill="none" viewBox="0 0 24 24" id="include--mobile-info" xmlns="http://www.w3.org/2000/svg"><path d="M11.465 17.56c-.16 0-.32-.06-.44-.16-.2-.16-.3-.42-.24-.68l.98-5-.54.3c-.34.18-.76.08-.96-.26a.713.713 0 01.26-.96l1.86-1.06c.24-.14.54-.12.76.04.22.16.32.44.28.7l-1.02 5.18.84-.36c.36-.16.76 0 .92.36.16.36 0 .76-.36.92l-2.06.9a.46.46 0 01-.28.08zM13.445 8c.18-.18.3-.44.3-.7 0-.26-.1-.52-.3-.7-.18-.18-.44-.3-.7-.3-.26 0-.52.1-.7.3-.18.18-.3.44-.3.7 0 .26.1.52.3.7.18.18.44.3.7.3.26 0 .52-.1.7-.3zm7.76 4c0-5.08-4.12-9.2-9.2-9.2-5.08 0-9.2 4.12-9.2 9.2 0 5.08 4.12 9.2 9.2 9.2 5.08 0 9.2-4.12 9.2-9.2zm-1.6 0c0 4.2-3.4 7.6-7.6 7.6-4.2 0-7.6-3.4-7.6-7.6 0-4.2 3.4-7.6 7.6-7.6 4.2 0 7.6 3.4 7.6 7.6z" fill="#DEDEDE"/></svg><svg fill="none" viewBox="0 0 20 32" id="include--pnone-icon" xmlns="http://www.w3.org/2000/svg"><path d="M17 0H3a3 3 0 00-3 3v26a3 3 0 003 3h14a3 3 0 003-3V3a3 3 0 00-3-3zm-7 30c-1.106 0-2-.894-2-2 0-1.106.894-2 2-2 1.106 0 2 .894 2 2 0 1.106-.894 2-2 2zm7-6.75c0 .413-.337.75-.75.75H3.75a.752.752 0 01-.75-.75V3.75c0-.413.337-.75.75-.75h12.5c.413 0 .75.337.75.75v19.5z" fill="#CBCFD4"/></svg><svg fill="none" viewBox="0 0 14 12" id="include--star" xmlns="http://www.w3.org/2000/svg"><path d="M6.528.363a.5.5 0 01.944 0L8.68 3.846a.5.5 0 00.472.336h3.834a.5.5 0 01.282.914L10.222 7.17a.5.5 0 00-.19.577l1.175 3.393a.5.5 0 01-.753.577L7.28 9.557a.5.5 0 00-.562 0l-3.173 2.16a.5.5 0 01-.754-.577L3.97 7.747a.5.5 0 00-.191-.577L.732 5.096a.5.5 0 01.282-.914h3.834a.5.5 0 00.472-.336L6.528.363z" fill="#FED500"/></svg><svg fill="none" viewBox="0 0 13 12" id="include--star-grey" xmlns="http://www.w3.org/2000/svg"><path d="M6.024.464a.5.5 0 01.952 0l1.096 3.373a.5.5 0 00.475.345h3.547a.5.5 0 01.294.905l-2.87 2.085a.5.5 0 00-.181.559l1.096 3.373a.5.5 0 01-.77.56l-2.87-2.086a.5.5 0 00-.587 0l-2.87 2.085a.5.5 0 01-.769-.559l1.096-3.373a.5.5 0 00-.181-.56L.612 5.088a.5.5 0 01.294-.905h3.547a.5.5 0 00.475-.345L6.024.464z" fill="#C5C5C5"/></svg><svg fill="none" viewBox="0 0 50 50" id="include--user-icon" xmlns="http://www.w3.org/2000/svg"><path fill-rule="evenodd" clip-rule="evenodd" d="M25 50c13.807 0 25-11.193 25-25S38.807 0 25 0 0 11.193 0 25s11.193 25 25 25z" fill="#F3F3F3"/><mask id="ma" maskUnits="userSpaceOnUse" x="0" y="0" width="50" height="50"><path fill-rule="evenodd" clip-rule="evenodd" d="M25 50c13.807 0 25-11.193 25-25S38.807 0 25 0 0 11.193 0 25s11.193 25 25 25z" fill="#fff"/></mask><g mask="url(#ma)"><path fill-rule="evenodd" clip-rule="evenodd" d="M24.894 39.202c-2.538 0-4.73-1.331-5.25-3.045h1.04a.77.77 0 00.76-.78v-3.248a7.807 7.807 0 006.968.001v3.247c.001.43.343.78.764.78h.97c-.522 1.714-2.714 3.045-5.252 3.045M18.527 25.4l-.483-4.892a7.502 7.502 0 01-.049-.817c0-3.933 3.111-7.133 6.934-7.133 3.824 0 6.934 3.2 6.934 7.133a8.1 8.1 0 01-.053.869l-.48 4.844c-.314 3.413-3.065 5.985-6.401 5.985-3.335 0-6.086-2.572-6.402-5.99m14.014 9.197h-2.604v-3.464a8.196 8.196 0 002.909-5.576l.48-4.872a9.09 9.09 0 00.06-.993C33.386 14.9 29.592 11 24.93 11c-4.664 0-8.457 3.9-8.457 8.692 0 .335.023.666.06 1.026l.48 4.833c.21 2.277 1.303 4.246 2.91 5.582v3.464h-2.606c-5.699 0-10.336 4.767-10.336 10.624 0 .43.342.779.762.779a.77.77 0 00.762-.78c0-4.998 3.952-9.063 8.812-9.063h.764c.486 2.599 3.353 4.603 6.815 4.603s6.328-2.004 6.814-4.603h.832c4.86 0 8.814 4.066 8.814 9.064 0 .43.34.779.761.779a.77.77 0 00.762-.78c0-5.856-4.637-10.623-10.337-10.623" fill="#C6C6C6"/></g></svg><svg fill="none" viewBox="0 0 20 19" id="include--user-mobile" xmlns="http://www.w3.org/2000/svg"><path fill-rule="evenodd" clip-rule="evenodd" d="M3.988 12.098a3.911 3.911 0 012.766-1.146h6.258a3.911 3.911 0 013.912 3.911v1.565a.782.782 0 11-1.565 0v-1.565a2.347 2.347 0 00-2.347-2.346H6.754a2.347 2.347 0 00-2.347 2.346v1.565a.782.782 0 01-1.564 0v-1.565a3.91 3.91 0 011.145-2.765zM9.883 3.13a2.347 2.347 0 100 4.693 2.347 2.347 0 000-4.694zM5.972 5.475a3.911 3.911 0 117.822 0 3.911 3.911 0 01-7.822 0z" fill="#DEDEDE"/></svg><svg fill="none" viewBox="0 0 19 16" id="include--wishlist-mobile" xmlns="http://www.w3.org/2000/svg"><path d="M18.446 3.08C17.589 1.213 15.792 0 13.848 0s-3.198.842-3.93 1.746C9.189.842 7.934 0 5.99 0S2.25 1.212 1.391 3.08C.513 5.033.89 7.19 2.415 8.874c3.658 4.046 6.897 6.901 6.94 6.922a.832.832 0 00.564.205.832.832 0 00.564-.205c.042-.02 3.26-2.896 6.939-6.922 1.546-1.684 1.923-3.84 1.024-5.792zm-2.257 4.704c-2.717 2.978-5.184 5.32-6.25 6.285A102.507 102.507 0 013.69 7.764c-1.087-1.212-1.358-2.67-.752-4.046.564-1.253 1.797-2.116 3.072-2.116 2.487 0 3.052 1.828 3.114 2.054.084.37.418.616.795.616a.87.87 0 00.815-.616c.062-.205.627-2.054 3.114-2.054 1.254 0 2.487.842 3.072 2.116.627 1.396.355 2.855-.731 4.066zm-.21-2.382a.72.72 0 01-.689.76h-.042a.727.727 0 01-.731-.678c-.084-1.17-.857-1.356-1.003-1.376a.732.732 0 01-.628-.801c.063-.39.44-.657.837-.616.731.102 2.131.8 2.257 2.71zm-1.002 1.191c.167.164.25.37.25.575a.74.74 0 01-.25.575.798.798 0 01-.586.247.798.798 0 01-.585-.247.77.77 0 01-.25-.575.77.77 0 01.25-.575.886.886 0 01.585-.246c.21.02.418.102.585.246z" fill="#DEDEDE"/></svg></svg>